<svg xmlns="http://www.w3.org/2000/svg" viewBox="0 0 1060.00 856.55" preserveAspectRatio="xMidYMid meet">
<path d="M260.67 778.00 258.56 778.00 249.47 775.82 243.00 770.61 226.31 774.32 203.97 782.76 191.57 782.34 181.71 773.27 141.39 760.33 134.87 759.28 108.29 758.74 108.23 758.72 106.96 738.24 103.66 723.42 94.35 701.32 108.16 695.98 105.49 652.76 100.48 630.27 61.90 607.11 31.52 584.56 38.53 508.23 41.53 487.56 30.00 447.35 31.20 400.86 36.06 327.14 45.72 324.25 52.80 324.60 80.13 337.88 91.50 339.20 99.29 351.04 108.42 355.91 115.04 343.34 117.61 321.82 139.27 293.89 154.44 283.56 164.79 278.60 175.23 289.90 183.22 302.57 185.11 274.82 191.55 221.73 170.97 213.37 154.19 220.58 137.56 254.26 122.72 296.43 98.65 300.30 79.44 312.20 62.10 299.86 50.92 288.97 50.64 273.01 53.18 263.37 73.56 228.88 100.85 195.63 128.36 195.95 148.42 185.31 160.40 184.04 197.82 186.38 217.03 179.07 234.23 163.77 271.41 98.78 292.39 71.55 334.69 61.96 373.78 30.40 384.70 30.00 366.32 53.53 363.37 62.62 361.14 76.54 374.32 106.70 371.54 125.01 372.47 160.94 360.04 179.61 346.01 219.21 339.97 225.03 338.67 271.03 340.05 281.97 338.06 323.62 352.44 340.62 367.64 349.49 418.34 349.17 423.60 356.63 429.78 369.43 425.25 391.12 419.84 407.46 405.15 421.19 386.31 431.42 374.59 431.87 358.62 412.42 351.03 418.74 343.20 428.65 330.07 481.70 323.85 517.38 320.48 520.27 313.06 515.02 300.24 514.61 284.04 523.05 292.35 530.60 301.13 543.70 297.62 550.25 283.37 557.33 270.73 571.64 265.44 582.45 249.50 595.23 239.48 611.41 244.39 631.43 246.48 648.97 250.87 668.32 246.91 683.73 227.17 705.81 219.89 724.91 236.81 724.67 247.22 729.07 253.32 734.71 259.61 742.69 255.75 752.54 260.67 778.00 Z M663.91 537.71 664.26 563.05 660.55 570.42 655.11 575.26 640.87 580.41 628.54 587.58 617.54 600.17 613.49 618.13 622.09 631.26 637.74 638.44 641.72 663.37 628.80 675.64 595.66 687.88 592.18 717.35 593.25 740.52 592.65 757.32 590.02 780.53 563.21 791.09 545.91 755.76 545.76 741.58 540.59 725.01 539.62 710.86 533.49 688.18 508.13 682.04 498.29 681.23 484.52 685.45 481.11 683.81 464.63 652.74 467.35 618.35 458.55 600.95 457.34 593.07 457.55 584.32 450.32 577.11 441.55 573.29 437.29 553.80 447.37 549.06 472.29 551.35 479.57 550.02 486.24 545.95 506.39 513.79 505.81 506.69 507.96 497.47 529.78 494.06 539.49 506.52 537.54 526.44 538.78 551.91 551.99 558.83 557.14 559.84 562.64 541.05 566.50 531.90 571.73 526.80 573.51 509.57 570.41 499.04 563.80 491.18 588.49 469.77 614.05 452.78 628.91 451.89 643.88 456.05 657.78 461.79 665.33 466.73 669.56 474.65 660.23 493.52 657.64 503.83 663.91 537.71 Z M389.72 582.03 395.66 595.20 402.97 623.20 414.54 654.43 409.71 667.47 412.99 684.16 409.69 701.54 386.68 721.70 360.87 722.61 334.05 712.88 296.16 694.11 293.11 683.55 287.80 677.69 277.66 645.57 277.90 605.81 296.94 600.82 338.55 581.77 348.17 584.77 358.20 594.51 369.76 595.08 386.53 581.27 389.72 582.03 Z M491.82 761.63 517.04 777.00 534.11 776.12 545.72 782.49 548.49 792.31 549.47 814.09 537.28 820.43 523.82 818.28 505.50 826.55 445.37 790.97 446.24 761.21 448.65 749.50 477.15 746.71 491.82 761.63 Z M1022.96 729.31 1017.69 733.52 994.14 726.55 965.44 709.30 969.64 675.41 977.01 660.73 1029.36 698.76 1030.00 713.06 1022.96 729.31 Z" fill="rgba(23,184,106,0.10)" stroke="#17b86a" stroke-opacity="0.55" stroke-width="2" stroke-linejoin="round" stroke-linecap="round" fill-rule="evenodd"/>
</svg>
