<svg xmlns="http://www.w3.org/2000/svg" viewBox="0 0 1060.00 1563.16" preserveAspectRatio="xMidYMid meet">
<path d="M583.73 1276.82 576.20 1283.63 552.30 1290.50 542.01 1297.50 523.97 1313.29 520.50 1314.59 493.28 1310.80 473.02 1290.33 460.08 1281.92 454.73 1280.96 449.20 1283.47 437.38 1286.03 425.32 1285.59 431.47 1276.11 439.83 1270.80 421.11 1267.12 415.91 1264.23 409.98 1257.56 395.30 1256.42 388.30 1258.12 376.48 1266.93 357.81 1276.28 335.32 1263.31 330.91 1257.62 331.03 1246.62 327.66 1237.89 321.42 1234.82 329.40 1223.43 339.03 1215.84 360.22 1208.29 392.30 1190.35 410.30 1182.69 427.02 1169.47 433.93 1161.39 438.95 1150.33 443.92 1136.72 451.02 1125.66 444.14 1123.02 441.06 1114.66 441.88 1106.17 445.06 1098.63 442.22 1089.17 437.15 1079.26 437.43 1071.53 438.77 1063.27 425.87 1063.71 413.00 1066.30 401.33 1072.16 390.02 1080.11 379.98 1081.58 380.14 1075.22 384.50 1067.35 395.89 1056.10 408.08 1046.76 412.41 1039.66 415.83 1031.40 421.88 1024.77 437.81 1012.21 468.31 998.06 472.87 997.22 484.83 998.87 496.59 996.73 506.89 991.63 517.16 990.53 540.27 1005.23 533.39 982.48 543.59 977.02 558.36 997.60 563.86 999.77 575.45 996.79 570.98 993.32 565.76 993.11 558.92 990.01 553.17 983.41 543.60 962.42 544.12 949.93 550.57 936.92 557.70 924.93 551.72 922.54 546.92 917.95 545.54 905.92 547.43 895.28 560.26 885.87 564.04 871.57 565.65 855.80 563.52 848.56 550.79 849.73 544.60 852.68 539.04 857.35 533.35 857.08 517.62 839.60 508.65 826.35 492.57 798.23 490.28 781.38 503.16 744.89 523.04 721.45 546.47 713.27 541.94 711.71 506.25 711.39 494.48 714.27 483.58 723.86 477.42 726.81 470.95 727.90 465.05 732.66 459.29 739.28 453.29 743.51 441.37 742.41 435.59 743.81 431.44 739.98 427.96 733.65 423.41 731.96 418.33 733.91 407.59 742.44 396.72 747.47 383.57 742.10 366.33 732.07 362.93 735.73 359.11 745.03 356.91 759.53 344.67 746.94 334.24 730.08 330.74 719.46 330.47 707.49 336.14 702.85 342.29 707.10 351.45 678.61 369.69 641.37 376.13 630.41 380.61 616.09 379.84 606.69 375.82 598.76 358.87 580.69 359.09 565.95 360.91 549.26 365.52 539.23 367.46 537.32 389.98 537.58 381.20 532.40 363.70 517.25 364.01 511.87 368.12 497.82 366.22 499.24 362.47 505.74 355.31 521.43 350.93 525.08 338.55 528.80 336.31 536.51 334.32 538.52 328.13 539.39 326.24 546.57 324.86 547.03 323.10 539.28 322.93 526.43 325.40 514.59 330.10 505.32 348.24 484.19 339.41 490.71 319.39 510.22 309.17 523.03 306.44 527.34 305.59 530.98 305.64 535.17 310.24 557.59 308.93 567.94 291.68 636.00 288.41 642.79 285.41 646.34 282.57 647.16 274.07 645.87 270.27 640.80 270.30 635.04 271.90 626.41 279.05 594.16 282.16 585.17 286.77 576.81 296.93 562.14 296.69 561.18 289.92 564.06 287.03 563.11 284.97 560.21 286.31 516.50 291.80 502.06 293.85 481.01 298.61 462.93 304.12 449.73 308.31 432.81 314.63 425.27 316.32 413.72 323.41 401.20 328.89 388.09 325.94 389.38 290.89 423.47 281.97 429.66 269.81 428.00 260.50 424.18 253.23 416.13 249.98 400.65 241.00 400.23 233.32 397.55 233.41 395.47 243.33 387.01 259.21 384.11 274.07 370.54 260.85 361.36 261.96 358.45 273.50 350.62 288.15 324.30 291.13 299.99 284.12 288.54 281.58 281.03 267.57 272.65 265.23 261.90 266.86 255.90 271.43 250.03 278.32 245.45 289.12 241.07 279.31 236.38 275.66 230.84 272.88 222.80 272.62 218.14 277.70 197.33 280.66 188.73 286.43 177.75 312.65 178.37 315.67 173.51 318.64 173.33 332.04 177.75 330.05 172.98 308.13 146.83 306.16 141.83 312.41 127.68 312.87 121.36 311.95 114.60 313.74 109.45 320.69 107.01 341.87 107.26 347.10 104.86 344.72 98.00 339.78 88.98 338.82 81.39 339.98 74.68 340.25 61.16 341.21 55.17 346.24 46.20 350.40 43.53 355.55 41.96 367.18 44.97 371.62 48.59 376.70 57.15 380.47 56.46 394.95 47.16 399.30 45.83 405.23 56.60 429.96 48.00 463.23 44.15 483.22 38.49 504.28 36.43 523.93 30.00 544.76 32.95 545.46 36.70 544.37 41.89 539.04 56.09 539.91 71.90 538.72 76.69 536.30 82.59 528.66 93.59 508.58 109.28 471.78 145.20 450.04 162.96 447.05 171.49 445.43 183.33 458.45 185.67 463.48 189.68 460.36 195.68 441.10 216.49 435.43 235.24 450.20 234.58 462.36 230.97 486.62 219.28 509.41 210.58 520.35 210.22 541.64 217.16 546.49 217.38 555.52 214.18 564.66 213.60 626.55 215.77 643.74 211.69 655.12 216.56 664.64 228.71 673.68 251.06 673.40 254.77 667.94 264.92 657.85 277.63 649.18 295.10 646.63 304.50 644.92 314.78 642.18 324.26 624.92 368.65 608.09 393.13 600.58 410.46 591.31 424.23 582.39 432.88 572.86 438.64 545.34 444.79 537.64 449.19 528.45 456.74 518.79 460.48 530.11 460.01 541.33 455.81 561.74 454.27 585.24 468.73 583.06 480.54 573.63 489.86 552.17 491.33 532.11 512.00 523.06 518.35 513.51 521.51 501.56 520.57 479.86 515.05 470.36 509.27 478.94 518.70 488.68 523.61 545.20 535.19 548.61 533.99 566.62 521.75 590.64 521.57 636.36 544.02 649.53 561.14 668.39 585.60 678.65 595.13 686.07 603.75 690.64 616.66 699.50 659.11 709.60 700.35 722.83 744.75 728.83 757.04 736.72 765.64 776.66 785.38 785.55 791.91 801.04 810.83 815.98 830.93 829.88 846.33 844.89 858.78 837.62 865.23 832.64 875.37 836.36 889.14 842.48 902.26 854.49 923.21 865.08 946.00 861.18 942.57 857.07 940.68 851.46 941.24 845.97 940.14 835.85 933.01 826.13 924.25 806.78 927.77 796.03 926.19 786.71 926.42 804.39 931.49 823.73 931.84 866.40 969.99 880.82 992.51 889.39 1022.16 883.56 1035.45 874.47 1044.04 866.00 1053.86 858.06 1064.92 881.71 1081.15 886.80 1080.66 892.04 1078.39 897.06 1072.88 905.54 1059.43 909.92 1054.64 924.65 1052.91 937.01 1053.94 949.32 1056.92 960.14 1055.97 981.95 1061.75 993.15 1066.95 1020.92 1090.34 1026.92 1103.10 1029.67 1119.55 1030.00 1137.75 1025.33 1154.34 1019.97 1169.29 1016.66 1188.55 1014.31 1195.47 1011.03 1200.89 996.32 1216.02 986.55 1222.24 982.42 1219.51 978.02 1219.89 977.56 1223.52 982.21 1231.23 982.26 1240.52 973.58 1247.38 964.75 1250.31 949.98 1246.66 929.47 1259.44 944.21 1265.99 947.19 1272.97 943.49 1285.21 934.22 1290.66 923.95 1293.07 913.42 1293.65 904.70 1296.64 896.34 1302.40 906.84 1299.34 914.11 1302.02 918.68 1312.28 922.83 1315.22 943.34 1319.60 956.03 1319.56 980.52 1317.07 992.28 1317.14 996.47 1318.99 996.54 1327.47 994.71 1348.28 991.48 1352.56 959.01 1369.98 952.36 1382.13 950.49 1389.48 931.51 1388.18 922.61 1395.94 907.24 1401.09 895.35 1406.57 883.72 1413.48 874.16 1415.55 832.81 1407.34 807.85 1408.01 774.04 1415.17 765.33 1413.99 752.27 1407.14 738.89 1402.50 723.51 1400.46 710.22 1394.13 718.51 1406.31 700.08 1418.04 691.58 1420.37 682.78 1420.00 664.77 1423.18 648.09 1421.56 650.60 1429.89 655.06 1437.13 651.44 1440.29 647.61 1441.07 615.83 1435.60 611.33 1436.64 607.41 1441.69 595.85 1438.96 584.62 1430.45 572.68 1424.73 560.15 1422.04 550.19 1422.97 509.23 1436.40 501.05 1449.85 496.97 1468.88 491.05 1485.74 481.41 1498.69 469.92 1500.38 459.12 1491.42 438.58 1481.51 431.59 1474.80 429.36 1474.41 427.07 1476.81 419.01 1479.84 410.67 1479.98 397.81 1482.64 375.44 1490.70 366.40 1496.16 346.97 1511.20 343.02 1515.36 335.95 1530.49 325.16 1533.16 315.30 1523.47 304.06 1520.08 292.21 1523.40 285.04 1528.55 281.70 1524.37 281.59 1515.75 290.24 1505.48 313.33 1497.71 333.60 1477.51 343.54 1465.17 347.49 1458.22 352.34 1453.79 358.70 1452.12 361.96 1444.42 390.10 1413.42 392.42 1406.29 393.82 1393.52 396.15 1381.20 419.06 1373.22 430.01 1347.23 433.02 1345.17 464.97 1340.39 488.67 1340.77 512.21 1345.87 524.27 1346.32 536.38 1344.57 545.88 1337.54 562.14 1312.12 571.28 1300.91 581.75 1290.76 591.55 1279.16 607.45 1257.62 596.70 1265.05 583.73 1276.82 Z M224.80 863.84 216.14 862.78 210.07 865.84 206.14 868.67 202.33 868.16 191.42 869.26 181.14 869.02 179.69 864.52 181.44 850.95 179.15 847.27 169.34 845.39 165.70 842.15 160.06 832.76 158.96 828.36 158.15 822.28 152.20 814.44 144.96 808.82 140.71 808.55 132.24 817.73 125.26 827.01 127.74 831.67 130.02 837.80 126.22 842.19 114.73 852.23 112.93 856.12 109.83 858.23 104.35 855.46 90.70 856.10 84.42 854.33 77.12 846.93 59.31 841.99 56.32 830.13 52.89 827.92 32.69 807.50 30.00 800.68 32.62 796.60 40.16 790.42 65.49 780.18 69.47 776.05 70.29 772.40 62.86 768.23 56.15 763.62 53.87 760.60 53.68 757.98 57.49 754.56 65.14 754.31 71.18 755.86 75.98 752.78 84.43 749.69 90.10 745.79 94.97 735.71 100.12 726.64 100.65 721.71 105.16 704.42 107.64 700.12 123.63 688.77 127.68 694.97 135.57 696.49 142.63 690.78 151.08 672.76 156.96 671.63 163.45 673.09 176.19 670.83 198.81 662.40 208.90 662.26 223.16 666.68 233.78 666.59 243.22 679.49 248.28 699.77 260.06 719.76 275.46 737.10 276.08 747.69 270.58 753.37 259.06 760.42 259.11 767.95 266.71 764.15 273.26 762.40 289.04 764.08 294.56 771.73 298.38 783.18 300.38 792.56 299.02 802.74 294.77 799.52 290.46 790.40 285.66 786.20 280.09 783.92 282.62 796.44 281.62 813.15 284.05 814.73 291.54 815.02 286.59 832.08 276.35 836.70 264.41 838.43 261.53 844.46 259.37 852.22 253.13 863.78 244.91 870.29 234.75 868.98 224.80 863.84 Z M226.75 85.49 213.90 119.02 208.87 119.85 204.45 128.20 190.77 137.41 202.71 137.59 206.06 140.66 206.15 147.25 203.85 151.09 188.39 166.33 177.76 172.10 166.30 187.97 160.52 188.17 154.80 198.25 150.09 202.67 147.45 202.68 144.41 200.45 137.30 190.59 150.19 180.88 151.39 175.41 160.21 169.72 159.47 167.95 145.48 159.94 139.97 154.54 140.49 151.72 147.23 145.51 144.03 144.69 141.87 141.34 137.96 140.06 136.79 136.93 136.07 128.72 137.12 120.30 141.20 116.59 142.87 112.60 144.52 111.38 150.84 113.49 157.24 120.23 164.71 117.64 173.39 118.92 173.57 117.35 167.20 100.77 168.34 97.38 171.79 93.51 191.82 81.66 216.79 61.67 222.83 58.54 224.65 61.27 227.20 71.63 226.75 85.49 Z" fill="rgba(23,184,106,0.10)" stroke="#17b86a" stroke-opacity="0.55" stroke-width="2" stroke-linejoin="round" stroke-linecap="round" fill-rule="evenodd"/>
</svg>
