<svg xmlns="http://www.w3.org/2000/svg" viewBox="0 0 1060.00 1253.78" preserveAspectRatio="xMidYMid meet">
<path d="M633.13 261.50 628.14 261.88 613.73 263.21 620.09 272.47 622.19 276.17 622.61 281.60 621.51 291.65 618.47 300.20 614.91 307.14 608.05 314.00 618.47 320.76 611.40 329.86 608.09 333.40 604.26 332.79 597.40 329.65 580.81 322.04 572.88 319.17 565.81 318.29 562.03 318.40 547.01 311.86 544.11 312.60 538.72 315.43 538.12 321.78 538.46 337.51 539.26 349.56 537.27 356.49 535.29 361.19 529.28 373.80 515.77 365.24 506.55 359.55 500.63 367.12 485.78 380.94 478.18 407.99 477.74 408.87 473.25 415.70 467.49 418.83 463.13 420.38 460.59 428.33 466.51 439.68 469.55 445.65 472.37 455.25 471.85 461.34 471.19 465.13 464.83 472.85 451.26 493.14 438.70 514.14 433.55 520.14 435.89 537.77 431.71 542.91 423.20 548.72 418.85 550.95 414.17 552.27 399.78 554.58 402.34 573.20 403.31 581.40 403.29 586.25 401.80 590.96 400.02 599.96 397.34 631.86 395.29 635.27 392.46 643.83 383.35 664.28 376.04 677.79 365.50 697.11 374.07 703.18 381.91 707.60 383.53 714.38 384.61 725.67 384.35 733.33 381.36 740.20 379.03 745.01 377.41 747.35 366.29 745.02 352.04 742.02 348.35 741.99 340.06 744.15 332.58 748.58 328.64 752.30 327.58 753.78 322.60 762.24 313.74 777.20 308.88 783.70 310.29 792.64 302.15 809.83 307.48 827.07 307.70 827.63 310.53 834.56 307.57 839.02 306.32 841.42 306.74 849.29 307.52 858.07 306.83 863.20 306.55 868.89 313.80 894.30 313.72 900.22 313.36 904.03 311.12 919.65 308.12 940.49 313.36 945.94 320.84 952.43 325.03 954.99 331.23 962.68 335.96 970.17 335.31 975.13 333.95 980.59 331.95 984.41 330.09 989.63 329.26 993.47 328.37 994.51 320.10 994.93 315.73 996.38 313.44 998.01 314.23 1006.74 319.25 1022.67 323.41 1033.94 324.75 1041.34 323.37 1048.82 321.95 1052.64 321.91 1057.78 320.81 1067.97 317.59 1073.11 313.36 1078.70 308.65 1082.86 304.91 1084.03 301.70 1084.51 299.55 1086.63 297.59 1092.83 295.79 1099.33 289.90 1107.29 290.06 1110.06 292.30 1119.46 294.40 1130.12 292.63 1140.05 291.10 1150.43 288.44 1157.33 284.63 1159.78 281.83 1158.56 278.67 1149.10 278.60 1146.92 277.81 1144.02 268.84 1141.13 267.25 1141.23 263.72 1139.54 261.65 1139.06 257.41 1138.08 253.88 1129.67 250.13 1122.65 249.60 1119.71 249.73 1106.52 248.58 1100.63 248.23 1094.19 245.87 1099.43 247.24 1107.69 244.33 1111.14 240.66 1112.82 241.01 1117.63 242.51 1118.54 242.83 1123.53 241.94 1130.89 234.71 1147.19 233.25 1148.94 232.26 1151.13 228.57 1149.67 223.83 1154.19 219.33 1154.91 217.71 1149.81 211.37 1143.03 208.38 1143.41 211.06 1146.76 213.71 1151.10 212.21 1153.97 210.73 1155.84 208.14 1156.81 198.89 1162.47 202.18 1166.27 199.39 1170.57 196.15 1171.20 194.43 1173.21 193.83 1175.93 184.24 1183.68 168.62 1203.43 160.59 1208.99 154.98 1214.75 150.04 1214.61 143.83 1219.50 128.10 1223.78 117.67 1221.84 110.40 1223.54 106.51 1220.18 106.00 1217.88 106.20 1216.53 106.85 1214.93 105.50 1214.35 102.65 1214.08 101.43 1215.70 101.26 1219.38 99.91 1220.34 94.50 1218.24 93.14 1216.34 95.08 1212.49 98.41 1209.02 97.81 1208.31 97.16 1206.19 95.54 1205.93 90.70 1206.44 86.76 1205.81 73.93 1197.98 70.93 1193.79 60.57 1187.08 55.93 1179.96 53.30 1172.13 53.50 1165.01 54.77 1153.67 56.94 1150.86 66.24 1154.84 75.63 1161.47 77.10 1161.15 80.05 1155.94 85.77 1151.75 84.15 1150.60 75.64 1155.40 72.48 1152.74 67.57 1147.31 67.57 1144.51 69.86 1141.71 70.62 1137.91 69.42 1134.32 69.98 1129.43 73.77 1124.23 79.46 1118.96 83.56 1113.86 87.77 1110.72 87.33 1109.67 82.52 1111.67 77.92 1115.06 72.50 1120.74 65.89 1125.34 61.00 1127.12 58.67 1128.59 55.09 1130.03 51.39 1136.59 47.35 1139.39 40.09 1139.68 38.49 1134.89 40.55 1117.78 42.74 1109.41 45.14 1103.48 48.93 1102.47 51.58 1098.11 53.77 1098.11 55.69 1100.13 63.08 1102.08 66.73 1096.52 71.48 1095.71 80.14 1090.09 79.96 1089.06 74.10 1090.30 70.55 1090.48 65.46 1091.90 62.75 1090.89 61.48 1086.67 63.52 1082.87 71.69 1073.76 74.51 1069.76 76.12 1066.02 75.87 1063.47 77.22 1058.19 85.22 1048.94 91.72 1044.70 93.85 1048.34 92.03 1059.73 92.05 1064.41 97.20 1047.83 99.46 1043.87 102.04 1041.08 108.29 1039.20 110.05 1036.57 102.78 1037.44 85.15 1043.80 77.71 1049.46 75.73 1053.81 70.58 1060.35 68.16 1064.59 67.09 1070.80 64.18 1074.17 60.27 1075.41 54.82 1083.25 52.43 1089.54 47.01 1094.53 43.57 1098.37 42.44 1099.73 40.58 1103.50 39.04 1103.76 37.69 1101.56 37.47 1096.70 38.02 1088.92 40.62 1083.31 41.87 1077.81 40.14 1072.67 41.34 1069.42 43.63 1069.53 47.89 1071.01 52.43 1070.78 59.87 1066.71 58.69 1064.32 55.47 1063.98 49.46 1064.32 44.41 1060.34 40.49 1052.39 38.70 1041.74 39.90 1038.68 54.42 1027.77 58.33 1022.80 56.07 1022.31 50.61 1028.34 42.81 1032.07 37.89 1026.88 35.33 1021.27 33.85 1009.39 34.39 1003.27 33.77 995.19 37.10 992.56 40.83 993.96 44.50 994.48 52.84 993.77 71.21 988.91 83.06 991.80 87.87 991.54 95.24 987.35 101.69 986.92 106.51 990.12 109.14 993.78 109.47 998.68 111.70 1001.94 113.21 1000.88 112.01 997.01 111.76 990.99 131.14 984.15 133.42 981.49 125.72 980.57 123.52 974.30 127.59 964.80 127.21 963.57 122.93 968.59 120.82 975.64 121.66 981.25 120.81 983.85 116.88 985.04 108.01 985.47 102.32 983.10 97.05 981.81 95.25 980.01 95.85 976.01 94.86 975.18 92.68 978.78 90.74 985.95 86.55 987.59 75.00 984.94 58.27 986.50 50.76 990.10 45.90 989.63 37.54 983.32 34.27 978.30 33.06 968.13 33.55 963.65 40.06 961.76 43.36 961.89 46.44 959.48 43.71 957.91 39.87 954.82 37.26 948.63 33.31 946.60 30.67 941.31 30.00 933.28 30.76 927.69 32.87 925.89 37.93 927.11 51.30 926.17 63.89 931.86 72.44 935.08 89.74 933.46 99.88 928.39 98.02 926.98 87.03 929.92 76.86 929.80 58.95 924.06 51.60 922.20 43.69 923.02 39.57 921.28 37.15 915.58 38.94 904.65 42.69 902.29 44.72 905.14 47.17 905.33 49.65 900.75 52.03 898.13 53.91 892.21 61.01 886.58 64.01 886.11 68.31 883.51 71.05 884.25 72.81 886.85 75.03 889.01 79.85 888.75 94.10 884.23 95.63 882.91 98.41 879.19 89.38 880.85 81.88 883.49 77.05 884.22 76.38 880.93 78.15 878.00 80.95 874.88 82.30 869.56 85.38 867.28 88.70 867.40 95.57 866.43 100.41 865.05 108.72 865.98 121.11 868.02 129.09 872.98 132.10 872.53 135.29 871.21 136.73 869.41 130.46 867.35 130.11 864.41 130.88 862.19 141.11 858.10 152.27 857.19 150.35 853.88 125.89 858.87 119.51 855.47 114.47 855.50 111.17 857.44 101.77 859.79 100.04 858.12 101.83 852.34 107.46 842.83 107.93 840.49 110.54 838.19 125.15 832.65 132.17 826.19 135.33 825.37 138.47 825.82 143.24 825.06 152.46 826.91 156.71 835.00 160.52 837.53 172.52 847.58 171.99 844.70 161.60 831.05 157.63 827.66 154.67 820.92 155.68 814.54 159.02 810.27 170.87 807.98 173.00 805.50 173.21 801.24 171.40 798.32 167.04 798.49 163.44 796.68 162.45 792.07 163.89 788.95 170.72 783.25 174.46 781.40 180.94 779.39 192.21 783.90 193.06 786.27 189.90 791.94 190.22 795.12 192.98 795.47 199.41 785.91 206.98 784.59 210.11 782.53 213.74 781.23 218.94 789.89 221.21 792.66 222.92 793.79 224.58 800.97 226.18 801.35 228.47 797.75 232.62 795.86 238.43 794.61 248.06 796.51 252.42 795.10 254.56 795.30 252.51 788.85 251.24 786.98 253.22 781.20 255.29 778.93 261.94 774.86 268.29 773.04 272.43 769.17 278.00 765.61 277.12 762.75 275.57 759.43 271.97 759.22 270.51 757.41 275.08 753.11 281.33 748.31 280.24 746.43 275.54 744.29 271.96 745.90 266.65 749.61 260.47 755.48 262.49 757.18 265.58 762.09 261.26 768.62 238.40 785.85 227.49 790.88 222.46 790.10 221.26 785.41 218.94 781.93 216.45 774.75 212.22 774.94 209.82 776.53 208.77 774.17 210.59 766.48 214.17 760.38 220.17 755.76 223.05 750.17 225.76 741.28 234.45 732.79 247.09 711.67 257.39 704.89 261.17 697.45 267.24 694.16 272.42 688.34 276.48 687.76 283.87 682.51 288.06 676.24 285.33 675.85 278.83 679.93 275.16 681.57 275.42 674.84 277.20 667.93 282.55 661.59 308.28 643.09 310.85 646.16 313.92 651.57 321.67 650.35 330.50 639.84 337.30 628.38 333.62 630.39 329.61 635.08 321.80 641.59 318.18 642.62 316.12 641.78 314.97 637.43 312.26 636.02 309.81 637.00 307.29 633.91 306.84 626.26 310.07 614.83 312.63 607.23 315.39 601.47 326.25 585.04 328.60 576.03 333.51 571.26 339.89 572.32 341.81 570.94 339.62 565.01 332.67 560.29 332.24 557.32 355.40 549.51 366.43 549.77 369.70 545.86 375.70 543.36 380.24 538.57 377.90 536.45 366.69 540.86 359.69 542.92 356.52 542.86 354.05 544.37 345.10 544.95 343.16 525.81 344.56 515.36 347.89 515.58 348.66 505.56 352.51 499.65 357.83 498.32 360.51 495.78 364.38 490.61 370.79 491.81 377.37 490.65 375.74 488.21 367.57 485.06 365.55 479.65 368.43 476.61 371.57 474.38 374.33 473.98 379.79 463.34 383.10 458.79 386.82 459.58 391.99 454.87 397.07 456.48 401.99 453.39 408.70 451.35 433.27 450.56 434.00 446.18 428.83 445.16 410.57 444.03 401.25 444.11 397.33 445.25 395.88 443.72 396.14 441.09 399.53 436.92 401.13 432.30 407.91 421.00 415.85 413.44 421.94 415.37 428.41 422.59 433.03 423.49 435.18 425.82 438.54 435.72 440.13 436.04 439.41 426.52 443.86 418.75 442.70 416.60 436.02 419.41 430.90 416.49 426.86 410.63 425.71 405.26 428.22 399.95 430.59 397.27 428.98 394.14 418.88 402.51 411.74 404.46 408.92 403.29 410.45 395.70 409.60 389.67 419.17 374.74 422.47 373.00 427.85 374.21 432.70 378.43 436.76 377.76 441.17 375.50 440.57 371.45 431.02 369.84 428.56 366.47 429.45 363.15 436.00 359.65 442.52 353.30 449.99 351.46 456.01 346.65 457.16 347.74 458.18 349.63 460.34 367.40 465.71 381.80 467.69 382.32 465.63 370.08 467.55 366.55 469.99 363.86 470.75 360.80 467.96 359.76 465.67 355.35 462.41 341.21 463.53 337.52 470.59 329.95 479.46 328.20 488.90 333.52 492.22 333.58 497.70 332.15 506.99 327.78 512.46 326.11 515.31 326.12 516.02 323.90 513.37 322.48 512.52 321.10 510.45 320.30 501.86 322.67 478.15 321.92 475.87 319.38 475.45 314.99 477.96 308.68 480.72 305.20 489.66 298.91 499.12 298.06 509.09 286.84 512.90 278.40 515.06 265.33 521.14 254.71 536.37 248.65 536.99 245.96 535.37 240.40 535.50 230.35 539.67 218.59 542.45 214.49 543.73 214.00 547.01 217.86 551.00 226.04 557.26 230.72 565.45 231.52 567.64 229.22 561.27 224.56 556.45 218.45 556.06 212.30 558.35 209.04 561.90 209.40 566.36 208.71 570.52 204.56 571.13 201.64 571.30 197.67 572.34 193.62 578.44 183.95 597.24 177.63 598.60 180.19 597.58 198.86 595.42 210.85 595.49 219.58 599.15 210.85 604.05 186.80 607.74 175.42 611.90 168.86 614.87 167.38 617.81 163.97 621.70 161.94 622.88 164.56 624.11 170.62 622.02 191.79 622.23 198.45 619.89 207.34 610.93 227.04 611.34 229.54 613.37 228.61 616.84 225.37 627.93 206.65 637.64 209.02 637.76 207.48 634.64 201.97 630.84 196.67 629.70 190.09 630.21 172.47 633.13 165.46 641.51 166.19 646.53 165.22 648.87 168.41 653.90 168.18 657.38 155.45 664.26 154.33 670.30 162.76 677.56 168.41 683.40 176.52 685.05 174.31 681.90 155.34 678.45 148.39 670.97 144.77 663.01 136.15 660.93 132.32 661.29 129.47 668.32 126.71 677.59 129.87 685.85 122.65 688.11 124.63 694.45 120.85 698.38 125.94 700.80 124.43 702.19 117.61 712.30 113.37 718.72 117.28 722.16 121.33 723.75 129.09 726.20 144.35 731.21 152.55 734.31 156.56 738.00 157.68 739.77 153.59 736.32 148.67 735.39 144.02 737.05 132.44 738.98 127.87 749.80 110.51 758.85 101.45 764.28 100.70 773.76 80.26 776.45 76.53 778.92 75.67 778.29 70.63 773.09 67.44 772.91 61.18 779.76 53.54 788.06 40.67 792.16 39.79 794.72 43.38 802.81 49.19 807.76 55.83 811.35 59.17 813.68 58.48 815.60 53.50 817.92 51.16 823.06 52.47 826.13 55.68 828.52 56.10 830.67 58.04 831.18 62.29 826.74 66.92 819.16 79.15 811.69 92.98 809.22 100.23 806.81 119.16 800.97 131.19 800.52 139.60 802.87 143.54 809.32 140.45 817.27 129.23 819.25 117.27 839.12 84.55 848.44 66.28 859.03 51.05 864.96 47.88 867.75 57.99 865.50 71.13 861.00 79.48 864.32 83.29 863.69 93.15 862.65 98.61 861.99 104.32 862.03 109.34 865.14 108.00 877.55 97.70 880.70 86.51 883.61 78.08 885.01 70.78 889.84 63.84 898.94 63.79 899.29 61.05 888.29 51.38 886.99 47.01 890.69 41.18 900.88 30.00 906.12 31.24 909.25 33.78 921.79 35.71 931.41 43.70 931.04 56.14 928.90 61.31 926.79 64.49 914.47 73.86 912.44 78.46 916.30 80.05 924.63 75.39 926.78 79.61 924.13 90.15 923.68 105.88 922.72 115.01 922.72 123.30 923.76 127.75 927.10 110.09 928.24 105.55 933.14 98.85 934.96 85.31 939.74 68.96 945.13 59.40 948.27 56.78 958.66 57.15 963.13 60.76 967.06 68.75 970.00 71.93 979.27 75.31 982.45 79.55 983.05 82.07 985.31 82.56 991.56 76.55 995.62 75.55 1002.25 84.92 1000.92 91.84 1001.31 94.03 1009.33 93.58 1016.00 96.29 1028.68 110.35 1030.00 116.90 1029.37 124.81 1011.12 133.50 1003.22 141.78 990.28 144.96 946.34 139.44 947.22 145.41 977.82 158.42 979.57 162.12 978.59 169.91 978.57 176.13 979.15 180.36 981.40 184.31 985.14 186.16 992.75 185.18 996.51 187.30 999.08 184.16 1000.04 173.57 1002.24 171.23 1006.51 174.31 1008.37 185.61 1009.57 186.78 1011.72 178.72 1015.95 179.31 1020.55 178.63 1026.51 179.99 1028.60 194.58 1028.53 199.64 1027.54 204.55 1026.16 207.06 1023.41 208.14 1016.75 207.70 1007.70 201.97 1001.86 196.56 1000.04 196.33 999.26 196.99 1000.67 202.42 1000.29 206.58 999.41 211.09 998.18 215.19 996.47 218.62 992.89 223.03 986.70 226.52 969.64 233.29 968.29 236.28 962.80 255.03 961.30 257.77 959.29 260.09 953.42 263.09 950.59 258.95 948.31 252.67 948.84 246.42 955.69 234.40 962.10 225.84 963.91 222.87 967.53 214.23 960.17 192.40 947.07 185.76 932.15 175.62 926.68 170.20 918.16 158.99 912.12 148.88 906.67 148.53 900.68 151.07 891.32 160.29 885.86 164.92 882.86 166.29 882.13 166.49 875.44 163.87 867.99 163.32 862.00 164.07 859.74 165.33 851.41 180.16 845.57 187.62 842.36 190.18 840.02 194.48 838.10 201.54 833.82 225.86 830.64 234.97 829.93 240.53 830.67 257.28 829.91 266.50 826.01 274.09 823.27 277.51 819.65 278.20 814.90 280.14 810.75 284.51 807.82 290.46 804.52 303.74 798.94 308.62 793.60 307.23 789.79 302.35 781.63 298.56 775.55 296.15 768.72 290.92 762.70 286.94 757.20 286.15 754.07 291.19 751.55 295.90 742.17 299.73 736.85 302.75 729.95 303.43 727.16 300.07 717.16 297.86 705.25 295.23 701.80 295.27 700.72 289.26 697.56 280.84 689.08 266.22 685.62 261.04 679.10 248.84 671.51 236.27 670.43 235.96 665.34 235.54 657.88 235.95 653.16 238.81 650.18 242.40 649.66 245.38 652.55 256.78 651.65 259.61 650.16 260.97 643.39 257.78 635.20 257.99 633.13 261.50 Z M446.50 311.99 446.96 312.72 452.19 302.59 457.99 299.42 458.35 295.89 460.59 292.45 460.34 286.84 461.48 282.27 464.44 281.06 466.28 279.51 468.33 278.66 472.02 282.36 474.12 286.46 476.71 295.62 475.63 304.44 468.68 311.29 463.15 314.37 457.56 322.21 454.75 328.60 452.34 329.98 450.82 329.46 449.46 327.92 446.63 327.91 443.51 333.44 434.11 337.93 430.42 336.64 430.25 331.13 428.05 331.59 424.53 338.18 421.08 340.38 418.76 341.06 414.51 338.58 403.07 349.78 392.34 351.87 388.81 350.58 388.80 343.73 395.73 334.95 401.42 328.82 420.97 324.54 433.15 306.25 436.10 286.21 438.97 278.94 437.62 274.81 434.34 274.09 434.15 267.74 435.86 260.79 442.25 251.21 445.80 247.11 451.58 235.49 454.37 232.87 457.55 232.87 460.67 235.92 460.11 242.15 455.42 253.35 448.47 262.85 449.32 269.65 452.09 275.23 452.77 284.74 452.93 293.86 447.67 306.12 446.50 311.99 Z" fill="rgba(23,184,106,0.10)" stroke="#17b86a" stroke-opacity="0.55" stroke-width="2" stroke-linejoin="round" stroke-linecap="round" fill-rule="evenodd"/>
</svg>
