<svg xmlns="http://www.w3.org/2000/svg" viewBox="0 0 1060.00 1007.32" preserveAspectRatio="xMidYMid meet">
<path d="M979.84 585.62 985.21 596.72 987.30 605.40 985.08 612.22 985.77 619.02 990.55 626.22 1005.72 648.44 1013.19 669.76 1017.97 678.05 1029.00 688.81 1030.00 693.22 1025.58 697.26 1022.00 697.79 1019.11 698.87 1017.24 702.64 1020.13 706.67 1024.04 712.59 1028.89 729.31 1028.41 742.98 1024.68 746.45 1019.90 754.55 1016.66 761.94 990.51 767.08 984.22 774.98 969.90 790.23 960.12 798.98 945.68 814.78 922.81 841.87 914.38 853.18 908.22 862.51 889.72 887.31 884.03 897.69 885.16 906.23 891.10 926.24 892.35 935.26 891.30 943.59 889.34 950.99 889.67 954.29 895.13 959.65 903.84 968.07 904.34 970.90 903.11 974.54 900.10 977.32 889.23 974.39 877.07 968.69 872.93 969.37 866.35 968.06 839.24 957.05 820.96 948.41 819.16 942.80 815.70 934.66 807.93 927.84 790.09 921.91 782.82 917.29 753.84 914.70 741.26 914.60 732.36 916.51 726.67 916.32 718.83 928.39 713.43 931.89 705.53 932.26 698.62 930.11 691.55 923.76 680.24 920.41 672.06 922.03 666.04 920.64 660.85 920.31 659.04 921.58 654.87 921.40 648.81 924.44 642.19 928.73 634.89 932.00 629.27 939.01 624.26 952.74 610.08 946.59 605.35 949.26 598.66 951.05 594.09 949.20 595.17 944.47 597.23 939.13 597.14 931.67 595.82 923.42 591.43 920.73 584.82 919.74 581.43 918.11 581.06 915.38 577.70 911.87 571.85 902.98 566.33 891.92 562.52 888.62 556.97 893.89 548.56 899.88 543.33 901.95 533.23 919.13 515.08 919.71 513.97 911.69 512.06 903.98 501.44 902.05 501.15 897.52 498.90 886.14 477.62 863.82 475.04 854.49 475.87 850.89 474.39 844.94 469.76 841.36 452.95 837.09 448.62 839.54 444.72 837.02 438.60 831.65 427.97 827.28 426.81 825.02 422.99 821.17 420.86 820.65 419.49 822.99 416.40 826.30 405.48 830.48 401.11 828.76 397.15 825.13 392.63 817.29 386.06 810.42 380.65 807.98 377.56 804.37 376.87 801.56 388.89 795.91 391.51 790.08 389.97 779.44 388.18 778.10 383.42 781.70 373.38 784.86 364.13 786.32 359.41 786.32 333.03 766.93 315.87 760.99 305.78 759.27 304.68 761.24 309.25 772.13 317.13 785.55 316.76 789.12 307.30 794.60 301.94 796.98 295.61 801.63 290.26 808.03 285.63 810.94 281.63 810.21 277.37 807.12 266.44 787.32 252.70 772.13 251.06 768.72 246.76 767.94 240.70 764.45 238.65 759.79 241.69 754.92 245.88 750.46 253.31 747.70 255.56 745.12 256.89 741.21 259.64 736.17 258.91 734.35 253.65 728.63 245.85 723.22 224.22 727.28 218.29 730.17 214.94 726.41 212.41 720.90 206.94 719.85 199.45 714.82 190.56 709.91 181.88 708.46 163.84 701.33 156.89 700.94 152.86 698.49 148.67 693.10 145.11 687.18 143.26 675.17 129.96 669.71 116.71 666.29 115.78 668.03 116.33 680.15 115.63 686.61 106.89 690.62 98.23 691.00 98.72 688.99 109.07 667.18 113.72 653.41 119.00 628.21 112.64 608.26 110.88 598.91 107.91 594.41 89.75 584.66 88.37 581.27 91.15 568.01 89.77 562.42 85.40 556.53 79.64 544.77 77.41 534.79 84.75 523.03 86.56 514.39 89.76 502.53 92.10 496.02 92.54 494.22 87.73 489.59 86.51 483.09 87.81 473.70 85.25 466.74 78.81 462.22 74.63 456.23 72.70 448.77 74.21 437.03 79.19 421.00 68.63 401.69 42.54 379.03 30.00 363.16 31.03 354.08 36.52 345.85 46.49 338.45 54.05 325.30 58.30 309.68 58.43 306.71 58.66 295.53 47.05 249.63 45.16 238.09 43.78 224.16 43.06 220.34 65.98 230.12 75.59 235.62 74.40 229.45 72.45 224.12 73.73 216.30 73.08 204.48 52.28 198.44 38.53 196.40 36.98 188.18 38.30 182.85 42.10 185.99 55.62 187.22 88.85 171.27 146.24 150.50 207.54 130.95 221.85 128.83 236.24 124.70 241.56 117.37 246.86 112.46 255.21 99.50 273.67 79.32 306.32 71.96 318.50 62.35 344.05 48.88 402.29 33.74 426.61 30.41 450.44 30.00 471.66 41.96 494.13 56.68 498.17 65.56 486.01 60.03 468.30 46.81 461.75 46.25 476.87 86.39 485.14 100.53 501.86 111.09 515.88 114.64 559.06 108.25 574.40 99.89 578.83 95.66 582.83 97.74 610.90 100.00 639.35 102.28 685.11 104.71 732.80 107.26 782.28 109.90 835.83 112.76 892.29 114.44 895.74 113.29 901.50 106.58 908.54 107.48 916.84 111.64 920.73 114.74 922.37 118.26 923.40 122.33 927.94 123.14 936.24 126.24 947.47 133.29 956.27 140.12 964.64 149.89 967.42 160.91 967.58 173.37 967.04 181.39 967.75 184.65 979.20 242.41 998.28 297.64 1005.29 324.21 1008.08 338.32 1010.32 358.73 1011.01 373.03 1010.92 381.06 1009.50 392.10 1003.84 398.61 967.24 417.20 960.36 423.03 949.57 437.48 939.63 452.34 937.34 457.41 936.72 460.74 938.91 465.61 951.96 473.54 965.12 479.90 969.40 484.67 979.10 490.76 982.65 496.22 984.56 500.98 984.43 511.95 980.05 527.10 981.88 538.53 977.44 546.13 973.78 554.57 973.26 569.34 979.84 585.62 Z" fill="rgba(23,184,106,0.10)" stroke="#17b86a" stroke-opacity="0.55" stroke-width="2" stroke-linejoin="round" stroke-linecap="round" fill-rule="evenodd"/>
</svg>
