<svg xmlns="http://www.w3.org/2000/svg" viewBox="0 0 1060.00 661.92" preserveAspectRatio="xMidYMid meet">
<path d="M923.65 482.89 921.65 483.80 902.22 482.53 898.46 482.94 886.36 484.26 875.05 497.11 868.31 497.07 858.81 500.42 852.39 504.57 844.77 513.55 838.87 509.52 831.65 509.64 824.61 512.08 816.13 518.07 811.42 519.13 801.99 517.41 791.00 520.85 767.28 540.46 759.30 554.73 756.40 557.52 752.39 560.99 748.11 562.74 745.85 562.58 757.14 552.46 760.61 548.66 761.20 545.85 761.26 541.32 757.84 535.68 748.60 549.64 743.34 551.66 736.68 555.85 736.36 565.18 737.11 572.08 739.85 580.75 745.13 592.35 742.06 592.72 733.91 587.78 733.60 579.68 727.64 572.91 718.55 572.91 714.47 573.82 709.14 566.14 701.93 562.98 696.60 563.88 690.96 562.53 678.73 554.38 670.58 553.47 670.26 559.36 666.92 563.37 661.62 564.76 657.79 566.46 648.55 561.01 645.14 556.99 630.67 561.16 622.62 560.54 604.83 564.37 596.67 560.63 580.32 550.14 574.18 548.03 568.96 548.48 566.11 545.02 569.61 543.30 573.67 543.09 577.88 541.83 579.07 539.99 578.81 536.54 570.32 533.92 562.43 533.17 557.43 530.07 553.60 526.51 562.56 526.45 571.56 529.14 585.64 530.14 598.42 532.91 601.62 529.46 609.04 523.46 610.46 521.55 598.01 525.66 585.41 523.04 580.80 519.38 576.91 514.01 575.28 507.88 576.34 502.16 574.98 491.81 570.82 482.59 569.35 477.51 564.96 472.97 569.28 483.25 570.89 490.08 573.49 496.36 572.87 512.97 571.27 518.79 566.09 520.25 559.28 519.38 552.34 517.57 554.08 508.45 550.38 511.61 545.16 520.48 540.57 521.80 530.37 520.83 511.45 526.69 510.15 533.07 507.31 541.68 504.56 546.69 503.70 549.70 495.63 562.63 494.60 563.85 479.38 581.72 477.44 583.06 467.57 587.20 461.74 590.83 457.27 592.45 449.71 590.65 446.56 593.22 445.07 596.39 445.04 602.95 448.89 607.66 452.03 623.29 450.86 629.88 447.87 625.62 443.18 621.12 434.07 617.25 424.06 618.58 413.16 625.09 405.77 627.51 401.88 625.84 399.51 625.94 398.67 627.80 398.85 629.33 400.05 630.51 399.87 631.38 398.34 631.92 381.15 627.33 373.72 622.99 367.88 614.81 370.79 612.16 373.32 611.00 382.27 610.32 383.80 609.48 383.95 607.59 384.62 605.14 384.38 601.54 383.39 597.73 387.32 592.15 393.17 587.53 396.60 582.89 397.12 576.09 403.28 572.78 408.74 567.07 410.08 560.85 411.99 556.93 408.51 547.94 407.78 542.00 407.61 537.01 409.33 534.24 414.41 531.13 419.77 528.72 421.99 528.96 422.80 530.49 423.01 540.62 424.08 540.81 425.79 539.55 428.58 533.59 430.51 535.33 433.47 535.98 435.69 534.45 437.13 534.62 438.92 536.16 442.48 538.33 445.81 539.05 448.57 537.61 450.92 535.03 453.42 535.91 458.20 542.94 460.43 542.16 471.41 540.74 473.18 538.83 474.49 537.10 463.00 527.75 463.58 520.79 464.01 512.79 462.65 508.04 460.42 504.26 451.63 499.87 444.85 495.33 443.42 493.28 443.24 490.61 442.95 486.47 440.26 482.91 440.03 479.90 441.74 475.20 442.16 470.19 441.60 468.21 440.01 466.59 436.96 466.44 432.94 463.54 430.19 459.62 422.79 453.98 420.52 453.06 419.13 450.26 418.47 446.92 420.02 442.76 421.98 436.35 423.35 430.33 423.37 426.74 422.46 417.84 418.61 411.03 416.81 410.13 413.69 412.05 410.16 413.65 407.37 412.15 404.18 408.45 399.07 398.15 389.50 396.08 385.55 395.59 381.80 400.57 380.63 399.06 379.58 395.88 377.60 394.61 374.99 396.08 374.24 394.67 375.36 390.36 372.24 388.23 364.90 388.28 360.99 386.69 360.52 383.46 358.21 381.33 354.04 380.30 350.00 377.65 346.07 373.38 340.21 370.60 332.39 369.31 331.75 368.85 331.02 368.23 325.98 371.14 322.94 373.44 319.23 372.01 313.20 377.13 300.98 377.40 294.98 377.09 292.01 375.82 280.53 383.60 279.33 386.46 276.75 387.41 269.52 388.95 261.92 391.14 260.33 398.68 258.07 402.74 253.98 408.71 239.87 410.78 227.67 413.70 215.17 415.49 198.80 422.76 193.48 429.16 188.21 430.94 183.45 431.46 180.37 427.91 169.98 418.33 165.97 413.81 160.71 412.48 154.98 413.23 149.47 415.46 143.68 415.89 137.13 412.68 136.44 412.99 133.91 413.42 117.64 409.54 116.14 408.89 115.42 408.73 113.18 408.44 100.92 408.92 89.50 401.07 85.99 400.83 83.29 404.01 81.28 407.55 73.40 411.06 71.39 412.47 70.24 411.39 69.71 408.34 70.31 405.64 69.14 403.08 66.14 400.18 65.41 398.98 61.66 399.19 60.63 399.48 60.26 399.41 55.04 396.95 51.58 391.00 46.22 387.84 42.13 386.78 40.27 384.22 39.07 380.83 37.80 378.26 37.65 378.02 36.77 374.13 35.52 373.73 35.30 373.62 30.00 374.30 30.61 360.62 39.08 350.75 41.16 345.77 44.31 334.93 46.68 329.85 49.52 325.65 51.80 321.57 52.61 318.07 54.90 317.69 61.64 320.85 67.67 322.47 69.34 320.93 70.02 318.91 69.74 317.34 64.91 312.68 61.89 309.70 61.70 307.87 62.79 303.77 63.37 299.16 62.68 294.16 59.38 283.06 58.76 278.33 61.91 272.57 72.17 258.82 75.59 253.65 80.26 247.38 92.94 232.36 100.94 223.60 106.37 218.75 114.30 210.30 117.79 205.92 132.29 203.07 134.08 198.97 136.73 194.48 138.80 192.55 139.07 184.98 136.38 175.71 134.21 172.43 132.61 170.19 133.64 168.10 135.25 167.50 137.23 167.21 139.68 164.97 139.13 162.52 133.01 156.56 130.37 151.96 126.22 140.14 117.82 127.83 115.16 123.83 114.78 120.06 116.01 116.28 114.85 111.47 111.87 105.32 112.35 104.65 112.06 97.04 114.17 95.40 117.52 94.28 122.23 94.66 126.26 95.83 131.09 99.32 132.60 98.76 140.86 92.19 149.37 82.32 151.80 76.59 153.92 73.98 161.32 72.58 167.78 72.00 171.88 72.11 181.95 71.13 187.92 70.05 193.08 68.30 204.22 67.65 221.62 68.82 233.03 68.91 240.79 69.84 259.78 75.10 266.85 76.05 270.13 78.84 276.44 79.88 287.92 82.68 297.89 84.18 304.63 83.57 308.40 84.35 315.52 96.77 316.97 98.21 319.82 98.50 325.64 97.43 333.92 97.84 338.83 100.45 338.11 107.81 339.40 108.88 341.70 108.47 344.34 104.31 346.56 100.00 348.22 98.66 356.67 101.58 360.53 101.11 364.10 97.83 366.29 97.28 372.28 99.60 379.67 101.23 385.64 101.34 389.36 103.11 392.07 110.79 394.43 112.37 396.71 112.86 400.15 105.99 403.28 103.33 407.61 101.36 410.40 100.50 412.37 98.08 415.01 95.70 417.31 95.52 419.18 96.43 421.32 99.71 424.45 107.18 428.24 114.67 430.89 117.38 437.73 115.09 442.37 112.75 450.87 112.31 462.14 110.66 470.75 108.52 476.14 108.89 479.40 111.27 484.37 115.87 485.73 122.46 492.18 127.01 497.46 127.83 499.26 123.10 502.35 119.80 501.20 115.27 500.68 109.48 498.36 104.10 496.82 98.31 499.65 90.01 502.74 82.74 504.28 78.78 509.17 71.49 514.20 66.27 521.70 57.87 527.18 55.09 532.13 56.35 534.88 57.50 542.00 52.52 554.65 52.27 565.19 52.91 566.25 53.06 571.43 55.63 576.88 57.83 580.65 57.97 585.13 57.47 590.39 54.54 594.05 51.73 598.51 37.40 600.08 35.34 602.53 34.21 606.56 34.09 614.20 36.77 623.15 39.17 628.33 38.83 642.15 31.19 649.86 30.00 659.01 31.80 667.99 31.91 674.76 30.80 679.41 33.45 685.14 39.28 690.32 47.94 695.76 63.88 711.58 81.81 711.85 85.30 710.55 87.54 702.76 89.72 696.20 90.89 695.89 93.95 697.63 97.27 700.63 102.11 701.10 108.34 700.95 114.06 702.25 119.11 704.75 121.16 705.07 123.69 702.16 126.79 701.36 128.69 702.48 129.72 716.76 130.32 723.74 133.33 729.05 136.07 731.72 136.32 737.73 134.56 744.50 133.45 748.60 133.30 750.18 135.32 751.45 140.62 753.82 145.92 756.04 147.43 759.99 147.17 762.37 147.43 763.64 149.44 762.21 152.46 762.53 155.72 764.27 159.75 766.33 169.02 768.23 171.77 769.49 175.28 769.49 179.28 767.91 182.77 766.80 185.51 767.91 191.75 772.18 198.72 775.35 200.46 777.88 206.67 782.47 208.65 789.28 203.44 794.50 200.71 801.04 202.23 807.07 203.20 811.13 206.75 814.13 211.63 817.61 214.35 821.10 212.93 828.38 214.35 831.70 218.31 835.02 220.54 839.30 217.32 842.78 213.36 855.53 209.21 863.46 208.17 865.68 207.35 870.33 204.38 875.24 202.41 879.67 202.94 884.03 209.11 888.53 213.36 889.79 220.04 895.30 229.23 908.97 241.76 914.34 245.57 917.99 244.90 919.89 243.90 920.78 242.59 921.60 236.47 923.33 234.21 926.11 234.14 936.81 241.77 942.41 242.59 947.73 242.74 954.89 248.65 962.77 253.79 968.84 254.33 973.69 252.32 977.02 251.10 979.07 253.06 980.97 257.47 984.14 260.91 987.78 261.88 993.02 262.11 1002.12 268.75 1010.68 275.50 1016.03 275.87 1020.56 273.89 1024.57 273.38 1027.35 275.09 1028.14 278.01 1026.08 281.92 1026.08 287.52 1029.88 292.87 1030.00 298.13 1028.91 302.87 1026.76 307.23 1021.56 313.22 1016.74 318.80 1009.50 321.13 1005.45 323.56 1006.51 327.65 1009.16 331.47 1015.30 334.55 1022.27 336.80 1023.07 339.27 1022.01 340.51 1017.54 341.66 1011.36 340.48 1009.30 342.65 1006.45 346.25 1004.56 352.72 1003.13 358.71 1009.84 360.34 1013.74 362.78 1014.95 367.69 1016.35 373.15 1016.75 378.05 1014.53 380.44 1014.39 382.87 1015.44 384.07 1018.32 384.61 1020.53 385.70 1020.70 388.29 1016.48 394.09 1012.53 405.16 1010.41 411.04 1010.57 417.42 1008.20 420.96 1003.89 421.26 989.03 421.88 976.11 421.57 970.52 420.66 961.76 420.11 957.43 421.61 951.69 431.77 947.33 435.75 940.13 439.33 932.23 440.36 927.71 444.54 926.12 451.10 925.99 456.90 925.25 459.79 923.54 462.33 922.93 464.13 923.30 466.12 925.13 466.84 927.34 467.74 927.34 469.19 926.48 470.99 924.03 472.98 922.93 476.04 923.18 479.28 923.65 482.89 Z" fill="rgba(23,184,106,0.10)" stroke="#17b86a" stroke-opacity="0.55" stroke-width="2" stroke-linejoin="round" stroke-linecap="round" fill-rule="evenodd"/>
</svg>
